<mxfile host="app.diagrams.net" modified="2021-06-22T04:13:32.138Z" agent="5.0 (X11; Linux x86_64) AppleWebKit/537.36 (KHTML, like Gecko) Chrome/91.0.4472.101 Safari/537.36" etag="1Ne8QqhsNuv2nytZXqOH" version="14.8.0" type="github">
  <diagram id="uKVAJGPY_9tShjYEeQek" name="Page-1">
    <mxGraphModel dx="2840" dy="1073" grid="1" gridSize="10" guides="1" tooltips="1" connect="1" arrows="1" fold="1" page="1" pageScale="1" pageWidth="850" pageHeight="1100" math="0" shadow="0">
      <root>
        <mxCell id="0" />
        <mxCell id="1" parent="0" />
        <mxCell id="15Gqqc_4_2CM4w66VjGt-63" value="" style="shape=image;verticalLabelPosition=bottom;labelBackgroundColor=#ffffff;verticalAlign=top;aspect=fixed;imageAspect=0;image=http://img.mp.sohu.com/upload/20170621/0feaf038e62147fc8fca7c5f13b6912b.png;" vertex="1" parent="1">
          <mxGeometry x="-380" y="100" width="480" height="480" as="geometry" />
        </mxCell>
        <mxCell id="15Gqqc_4_2CM4w66VjGt-118" value="" style="endArrow=none;html=1;entryX=1;entryY=1;entryDx=0;entryDy=0;entryPerimeter=0;strokeColor=#FFFFFF;endSize=0;" edge="1" parent="1" target="15Gqqc_4_2CM4w66VjGt-135">
          <mxGeometry width="50" height="50" relative="1" as="geometry">
            <mxPoint x="-369.12" y="110" as="sourcePoint" />
            <mxPoint x="-74.12" y="470" as="targetPoint" />
          </mxGeometry>
        </mxCell>
        <mxCell id="15Gqqc_4_2CM4w66VjGt-119" value="" style="shape=table;startSize=0;container=1;collapsible=0;childLayout=tableLayout;fillColor=none;strokeColor=#FFFFFF;" vertex="1" parent="1">
          <mxGeometry x="-370" y="110" width="440" height="440" as="geometry" />
        </mxCell>
        <mxCell id="15Gqqc_4_2CM4w66VjGt-120" value="" style="shape=partialRectangle;collapsible=0;dropTarget=0;pointerEvents=0;fillColor=none;top=0;left=0;bottom=0;right=0;points=[[0,0.5],[1,0.5]];portConstraint=eastwest;strokeColor=#FFFFFF;" vertex="1" parent="15Gqqc_4_2CM4w66VjGt-119">
          <mxGeometry width="440" height="110" as="geometry" />
        </mxCell>
        <mxCell id="15Gqqc_4_2CM4w66VjGt-121" value="" style="shape=partialRectangle;html=1;whiteSpace=wrap;connectable=0;overflow=hidden;fillColor=none;top=0;left=0;bottom=0;right=0;strokeColor=#FFFFFF;" vertex="1" parent="15Gqqc_4_2CM4w66VjGt-120">
          <mxGeometry width="110" height="110" as="geometry" />
        </mxCell>
        <mxCell id="15Gqqc_4_2CM4w66VjGt-122" value="" style="shape=partialRectangle;html=1;whiteSpace=wrap;connectable=0;overflow=hidden;fillColor=none;top=0;left=0;bottom=0;right=0;strokeColor=#FFFFFF;" vertex="1" parent="15Gqqc_4_2CM4w66VjGt-120">
          <mxGeometry x="110" width="110" height="110" as="geometry" />
        </mxCell>
        <mxCell id="15Gqqc_4_2CM4w66VjGt-123" value="" style="shape=partialRectangle;html=1;whiteSpace=wrap;connectable=0;overflow=hidden;fillColor=none;top=0;left=0;bottom=0;right=0;strokeColor=#FFFFFF;" vertex="1" parent="15Gqqc_4_2CM4w66VjGt-120">
          <mxGeometry x="220" width="110" height="110" as="geometry" />
        </mxCell>
        <mxCell id="15Gqqc_4_2CM4w66VjGt-124" value="" style="shape=partialRectangle;html=1;whiteSpace=wrap;connectable=0;overflow=hidden;fillColor=none;top=0;left=0;bottom=0;right=0;strokeColor=#FFFFFF;" vertex="1" parent="15Gqqc_4_2CM4w66VjGt-120">
          <mxGeometry x="330" width="110" height="110" as="geometry" />
        </mxCell>
        <mxCell id="15Gqqc_4_2CM4w66VjGt-125" value="" style="shape=partialRectangle;collapsible=0;dropTarget=0;pointerEvents=0;fillColor=none;top=0;left=0;bottom=0;right=0;points=[[0,0.5],[1,0.5]];portConstraint=eastwest;strokeColor=#FFFFFF;" vertex="1" parent="15Gqqc_4_2CM4w66VjGt-119">
          <mxGeometry y="110" width="440" height="110" as="geometry" />
        </mxCell>
        <mxCell id="15Gqqc_4_2CM4w66VjGt-126" value="" style="shape=partialRectangle;html=1;whiteSpace=wrap;connectable=0;overflow=hidden;fillColor=none;top=0;left=0;bottom=0;right=0;strokeColor=#FFFFFF;" vertex="1" parent="15Gqqc_4_2CM4w66VjGt-125">
          <mxGeometry width="110" height="110" as="geometry" />
        </mxCell>
        <mxCell id="15Gqqc_4_2CM4w66VjGt-127" value="" style="shape=partialRectangle;html=1;whiteSpace=wrap;connectable=0;overflow=hidden;fillColor=none;top=0;left=0;bottom=0;right=0;strokeColor=#FFFFFF;" vertex="1" parent="15Gqqc_4_2CM4w66VjGt-125">
          <mxGeometry x="110" width="110" height="110" as="geometry" />
        </mxCell>
        <mxCell id="15Gqqc_4_2CM4w66VjGt-128" value="" style="shape=partialRectangle;html=1;whiteSpace=wrap;connectable=0;overflow=hidden;fillColor=none;top=0;left=0;bottom=0;right=0;strokeColor=#FFFFFF;" vertex="1" parent="15Gqqc_4_2CM4w66VjGt-125">
          <mxGeometry x="220" width="110" height="110" as="geometry" />
        </mxCell>
        <mxCell id="15Gqqc_4_2CM4w66VjGt-129" value="" style="shape=partialRectangle;html=1;whiteSpace=wrap;connectable=0;overflow=hidden;fillColor=none;top=0;left=0;bottom=0;right=0;strokeColor=#FFFFFF;" vertex="1" parent="15Gqqc_4_2CM4w66VjGt-125">
          <mxGeometry x="330" width="110" height="110" as="geometry" />
        </mxCell>
        <mxCell id="15Gqqc_4_2CM4w66VjGt-130" value="" style="shape=partialRectangle;collapsible=0;dropTarget=0;pointerEvents=0;fillColor=none;top=0;left=0;bottom=0;right=0;points=[[0,0.5],[1,0.5]];portConstraint=eastwest;strokeColor=#FFFFFF;" vertex="1" parent="15Gqqc_4_2CM4w66VjGt-119">
          <mxGeometry y="220" width="440" height="110" as="geometry" />
        </mxCell>
        <mxCell id="15Gqqc_4_2CM4w66VjGt-131" value="" style="shape=partialRectangle;html=1;whiteSpace=wrap;connectable=0;overflow=hidden;fillColor=none;top=0;left=0;bottom=0;right=0;strokeColor=#FFFFFF;" vertex="1" parent="15Gqqc_4_2CM4w66VjGt-130">
          <mxGeometry width="110" height="110" as="geometry" />
        </mxCell>
        <mxCell id="15Gqqc_4_2CM4w66VjGt-132" value="" style="shape=partialRectangle;html=1;whiteSpace=wrap;connectable=0;overflow=hidden;fillColor=none;top=0;left=0;bottom=0;right=0;strokeColor=#FFFFFF;" vertex="1" parent="15Gqqc_4_2CM4w66VjGt-130">
          <mxGeometry x="110" width="110" height="110" as="geometry" />
        </mxCell>
        <mxCell id="15Gqqc_4_2CM4w66VjGt-133" value="" style="shape=partialRectangle;html=1;whiteSpace=wrap;connectable=0;overflow=hidden;fillColor=none;top=0;left=0;bottom=0;right=0;strokeColor=#FFFFFF;" vertex="1" parent="15Gqqc_4_2CM4w66VjGt-130">
          <mxGeometry x="220" width="110" height="110" as="geometry" />
        </mxCell>
        <mxCell id="15Gqqc_4_2CM4w66VjGt-134" value="" style="shape=partialRectangle;html=1;whiteSpace=wrap;connectable=0;overflow=hidden;fillColor=none;top=0;left=0;bottom=0;right=0;strokeColor=#FFFFFF;" vertex="1" parent="15Gqqc_4_2CM4w66VjGt-130">
          <mxGeometry x="330" width="110" height="110" as="geometry" />
        </mxCell>
        <mxCell id="15Gqqc_4_2CM4w66VjGt-135" value="" style="shape=partialRectangle;collapsible=0;dropTarget=0;pointerEvents=0;fillColor=none;top=0;left=0;bottom=0;right=0;points=[[0,0.5],[1,0.5]];portConstraint=eastwest;strokeColor=#FFFFFF;" vertex="1" parent="15Gqqc_4_2CM4w66VjGt-119">
          <mxGeometry y="330" width="440" height="110" as="geometry" />
        </mxCell>
        <mxCell id="15Gqqc_4_2CM4w66VjGt-136" value="" style="shape=partialRectangle;html=1;whiteSpace=wrap;connectable=0;overflow=hidden;fillColor=none;top=0;left=0;bottom=0;right=0;strokeColor=#FFFFFF;" vertex="1" parent="15Gqqc_4_2CM4w66VjGt-135">
          <mxGeometry width="110" height="110" as="geometry" />
        </mxCell>
        <mxCell id="15Gqqc_4_2CM4w66VjGt-137" value="" style="shape=partialRectangle;html=1;whiteSpace=wrap;connectable=0;overflow=hidden;fillColor=none;top=0;left=0;bottom=0;right=0;strokeColor=#FFFFFF;" vertex="1" parent="15Gqqc_4_2CM4w66VjGt-135">
          <mxGeometry x="110" width="110" height="110" as="geometry" />
        </mxCell>
        <mxCell id="15Gqqc_4_2CM4w66VjGt-138" value="" style="shape=partialRectangle;html=1;whiteSpace=wrap;connectable=0;overflow=hidden;fillColor=none;top=0;left=0;bottom=0;right=0;strokeColor=#FFFFFF;" vertex="1" parent="15Gqqc_4_2CM4w66VjGt-135">
          <mxGeometry x="220" width="110" height="110" as="geometry" />
        </mxCell>
        <mxCell id="15Gqqc_4_2CM4w66VjGt-139" value="" style="shape=partialRectangle;html=1;whiteSpace=wrap;connectable=0;overflow=hidden;fillColor=none;top=0;left=0;bottom=0;right=0;strokeColor=#FFFFFF;" vertex="1" parent="15Gqqc_4_2CM4w66VjGt-135">
          <mxGeometry x="330" width="110" height="110" as="geometry" />
        </mxCell>
        <mxCell id="15Gqqc_4_2CM4w66VjGt-140" value="" style="endArrow=none;html=1;endSize=0;strokeColor=#FFFFFF;exitX=-0.002;exitY=1;exitDx=0;exitDy=0;exitPerimeter=0;entryX=1.002;entryY=0;entryDx=0;entryDy=0;entryPerimeter=0;" edge="1" parent="15Gqqc_4_2CM4w66VjGt-119" source="15Gqqc_4_2CM4w66VjGt-135" target="15Gqqc_4_2CM4w66VjGt-120">
          <mxGeometry width="50" height="50" relative="1" as="geometry">
            <mxPoint x="400" y="470" as="sourcePoint" />
            <mxPoint x="450" y="420" as="targetPoint" />
          </mxGeometry>
        </mxCell>
        <mxCell id="15Gqqc_4_2CM4w66VjGt-141" value="" style="endArrow=none;html=1;endSize=0;strokeColor=#FFFFFF;" edge="1" parent="1">
          <mxGeometry width="50" height="50" relative="1" as="geometry">
            <mxPoint x="-369.12" y="330" as="sourcePoint" />
            <mxPoint x="-149.12" y="110" as="targetPoint" />
          </mxGeometry>
        </mxCell>
        <mxCell id="15Gqqc_4_2CM4w66VjGt-142" value="" style="endArrow=none;html=1;endSize=0;strokeColor=#FFFFFF;" edge="1" parent="1">
          <mxGeometry width="50" height="50" relative="1" as="geometry">
            <mxPoint x="-149.12" y="550" as="sourcePoint" />
            <mxPoint x="70.88" y="330" as="targetPoint" />
          </mxGeometry>
        </mxCell>
        <mxCell id="15Gqqc_4_2CM4w66VjGt-143" value="" style="endArrow=none;html=1;endSize=0;strokeColor=#FFFFFF;" edge="1" parent="1">
          <mxGeometry width="50" height="50" relative="1" as="geometry">
            <mxPoint x="70.88" y="330" as="sourcePoint" />
            <mxPoint x="-149.12" y="110" as="targetPoint" />
          </mxGeometry>
        </mxCell>
        <mxCell id="15Gqqc_4_2CM4w66VjGt-144" value="" style="endArrow=none;html=1;endSize=0;strokeColor=#FFFFFF;" edge="1" parent="1">
          <mxGeometry width="50" height="50" relative="1" as="geometry">
            <mxPoint x="-149.12" y="550" as="sourcePoint" />
            <mxPoint x="-369.12" y="330" as="targetPoint" />
          </mxGeometry>
        </mxCell>
      </root>
    </mxGraphModel>
  </diagram>
</mxfile>
